# xmcd
#
# Track frame offsets: 
#        150
#        26700
#        50125
#        69247
#        104755
#        124955
#        147035
#        169787
#        181467
#        199387
#
# Disc length: 3356 seconds
#
# Revision: 0
# Processed by: cddbd v1.5.2PL0 Copyright (c) Steve Scherf et al.
# Submitted via: ExactAudioCopy v1.1
#
DISCID=9a0d1a0a
DTITLE=Pedro Abrunhosa and Bandemónio - Intimidade [CD2]
DYEAR=2005
DGENRE=Blues
TTITLE0=Se Eu Fosse Um Dia o Teu Olhar
TTITLE1=Diabo no Corpo
TTITLE2=Talvez Foder
TTITLE3=Lua
TTITLE4=Tudo o Que Eu Te Dou
TTITLE5=Eu Não Sei Quem Te Perdeu
TTITLE6=Momento (Uma Espécie de Céu)
TTITLE7=Parte de Mim
TTITLE8=Beijo
TTITLE9=Silêncio
EXTD=
EXTT0=
EXTT1=
EXTT2=
EXTT3=
EXTT4=
EXTT5=
EXTT6=
EXTT7=
EXTT8=
EXTT9=
PLAYORDER=
